<svg xmlns="http://www.w3.org/2000/svg" width="250" height="250" viewBox="0 0 250 250"><g><path fill="#D12028" d="M250 125c0 69.039-55.963 125-125.002 125-69.035 0-124.998-55.961-124.998-125 0-69.036 55.963-125 124.998-125 69.039 0 125.002 55.964 125.002 125z"/><path fill="#fff" d="M68.674 100.736h116.223v65.921h-116.223zM184.896 172.016h-116.222c-2.959 0-5.357-2.398-5.357-5.356v-65.921c0-2.958 2.398-5.357 5.357-5.357h116.223c2.959 0 5.356 2.399 5.356 5.357v65.921c-.001 2.955-2.398 5.356-5.357 5.356zm-110.865-10.716h105.507v-55.207h-105.507v55.207zM152.691 128.143h-51.812c-2.959 0-5.357-2.397-5.357-5.355v-38.07c0-11.593 9.433-21.027 21.027-21.027h20.473c11.597 0 21.027 9.435 21.027 21.027v38.068c0 2.957-2.399 5.357-5.358 5.357zm-46.455-10.715h41.099v-32.711c0-5.685-4.626-10.313-10.313-10.313h-20.473c-5.687 0-10.313 4.629-10.313 10.313v32.711z"/></g></svg>