<svg xmlns="http://www.w3.org/2000/svg" width="250" height="250" viewBox="0 0 250 250"><path fill="#D12028" d="M250 125c0 69.036-55.964 125-125.003 125-69.034 0-124.997-55.964-124.997-125s55.963-125 124.997-125c69.039 0 125.003 55.964 125.003 125z"/><path fill="#fff" d="M44.621 186.816c-2.958 0-5.357-2.399-5.357-5.357v-68.52c0-2.958 2.399-5.357 5.357-5.357 2.957 0 5.356 2.399 5.356 5.357v68.52c.001 2.958-2.399 5.357-5.356 5.357zM59.359 89.767c0 11.733-6.598 21.233-14.738 21.233-8.141 0-14.739-9.5-14.739-21.233 0-11.726 6.599-21.233 14.739-21.233s14.738 9.508 14.738 21.233zM44.621 116.357c-11.269 0-20.097-11.68-20.097-26.59s8.828-26.59 20.097-26.59c11.271 0 20.096 11.68 20.096 26.59s-8.824 26.59-20.096 26.59zm0-42.466c-4.437 0-9.382 6.519-9.382 15.876s4.945 15.876 9.382 15.876c4.436 0 9.382-6.519 9.382-15.876s-4.946-15.876-9.382-15.876zM203.823 186.816c-2.958 0-5.357-2.399-5.357-5.357v-68.52c0-2.958 2.399-5.357 5.357-5.357 2.956 0 5.356 2.399 5.356 5.357v68.52c.003 2.958-2.4 5.357-5.356 5.357zM218.827 87.556v8.74c0 8.28-6.718 14.998-14.997 14.998-8.287 0-15.003-6.717-15.003-14.998v-8.74h30zM203.83 116.65c-11.229 0-20.359-9.131-20.359-20.354v-8.74c0-2.958 2.398-5.357 5.356-5.357h30c2.958 0 5.356 2.399 5.356 5.357v8.74c.003 11.224-9.128 20.354-20.353 20.354zm-9.646-23.737v3.383c0 5.315 4.324 9.64 9.646 9.64 5.314 0 9.641-4.325 9.641-9.64v-3.383h-19.287zM188.827 92.913c-2.958 0-5.356-2.399-5.356-5.357v-19.022c0-2.958 2.398-5.357 5.356-5.357 2.957 0 5.354 2.399 5.354 5.357v19.022c.003 2.958-2.397 5.357-5.354 5.357zM218.827 92.913c-2.957 0-5.356-2.399-5.356-5.357v-19.022c0-2.958 2.399-5.357 5.356-5.357 2.958 0 5.356 2.399 5.356 5.357v19.022c.003 2.958-2.398 5.357-5.356 5.357zM203.83 92.913c-2.965 0-5.357-2.399-5.357-5.357v-19.022c0-2.958 2.394-5.357 5.357-5.357 2.958 0 5.357 2.399 5.357 5.357v19.022c.001 2.958-2.399 5.357-5.357 5.357zM169.184 121.735c-6.836 0-12.373-5.545-12.373-12.381l.068-.648c-1.506.412-3.076.648-4.708.648-9.827 0-17.786-7.966-17.786-17.787 0-4.862 1.946-9.257 5.105-12.465-4.575-1.444-9.438-2.232-14.486-2.232-26.583 0-48.129 21.547-48.129 48.13 0 26.576 21.546 48.124 48.129 48.124 26.574 0 48.121-21.548 48.121-48.124 0-1.318-.091-2.616-.195-3.906-1.186.377-2.428.641-3.746.641zM125.004 178.48c-29.491 0-53.486-23.992-53.486-53.48 0-29.492 23.995-53.488 53.486-53.488 5.469 0 10.889.833 16.098 2.48 1.779.562 3.141 2.005 3.586 3.815.453 1.81-.069 3.721-1.381 5.05-2.303 2.34-3.564 5.434-3.564 8.709 0 7.927 7.527 14.216 15.722 11.973 1.668-.46 3.453-.083 4.793 1.008 1.347 1.092 2.078 2.766 1.968 4.492l-.05.523c.111 3.777 3.216 6.815 7.011 6.815.606 0 1.283-.125 2.127-.391 1.549-.485 3.244-.248 4.604.656 1.354.91 2.219 2.386 2.351 4.011.119 1.434.217 2.877.217 4.346-.004 29.489-23.992 53.481-53.482 53.481zm0-96.253c-23.583 0-42.772 19.189-42.772 42.773 0 23.58 19.189 42.768 42.772 42.768 22.898 0 41.655-18.092 42.723-40.733-7.269-.597-13.31-5.598-15.443-12.322h-.111c-12.764 0-23.145-10.383-23.145-23.145 0-3.118.615-6.146 1.787-8.943-1.92-.266-3.867-.398-5.811-.398z"/><path fill="#D12028" d="M125.137 162.234c-20.535 0-37.241-16.702-37.241-37.234 0-2.958 2.399-5.357 5.356-5.357 2.962 0 5.357 2.399 5.357 5.357 0 14.624 11.9 26.521 26.527 26.521 2.956 0 5.355 2.398 5.355 5.356.001 2.958-2.398 5.357-5.354 5.357z"/></svg>