<svg xmlns="http://www.w3.org/2000/svg" width="250" height="250" viewBox="0 0 250 250"><path fill="#D12028" d="M250 125c0 69.039-55.964 125-125 125s-125-55.961-125-125c0-69.036 55.964-125 125-125s125 55.964 125 125z"/><path fill="#fff" d="M102.588 66.078h44.831v117.844h-44.831zM147.419 189.277h-44.831c-2.958 0-5.357-2.398-5.357-5.355v-117.844c0-2.957 2.399-5.356 5.357-5.356h44.831c2.958 0 5.356 2.399 5.356 5.356v117.844c0 2.957-2.398 5.355-5.356 5.355zm-39.474-10.713h34.116v-107.128h-34.116v107.128zM66.078 102.588h117.844v44.828h-117.844zM183.922 152.771h-117.844c-2.957 0-5.356-2.398-5.356-5.355v-44.828c0-2.958 2.399-5.357 5.356-5.357h117.844c2.961 0 5.355 2.399 5.355 5.357v44.828c0 2.957-2.394 5.355-5.355 5.355zm-112.486-10.712h107.128v-34.113h-107.128v34.113z"/></svg>