<svg xmlns="http://www.w3.org/2000/svg" width="250" height="250" viewBox="0 0 250 250"><path fill="#D12028" d="M250 124.999c0 69.044-55.963 125.001-125.002 125.001-69.035 0-124.998-55.957-124.998-125.001 0-69.036 55.963-124.999 124.998-124.999 69.039 0 125.002 55.963 125.002 124.999zM170.091 184.577c3.575 0 6.875-1.907 8.664-5.001 1.785-3.094 1.785-6.905 0-10.003l-38.603-66.87v-34.196h-30.296v34.197l-38.603 66.87c-1.788 3.098-1.788 6.908 0 10.003 1.786 3.094 5.088 5.001 8.662 5.001l90.176-.001z"/><path fill="#fff" d="M170.091 189.936h-90.175c-5.472 0-10.567-2.943-13.302-7.681-2.734-4.729-2.734-10.616 0-15.36l37.883-65.625v-32.76c0-2.958 2.399-5.357 5.357-5.357h30.298c2.957 0 5.357 2.4 5.357 5.357v32.763l37.883 65.63c2.733 4.734 2.733 10.623 0 15.353-2.733 4.735-7.831 7.68-13.301 7.68zm-54.88-116.07v28.84c0 .941-.244 1.862-.719 2.679l-38.601 66.868c-.827 1.437-.827 3.216 0 4.646.83 1.438 2.372 2.324 4.024 2.324h90.175c1.653 0 3.195-.887 4.02-2.324.83-1.43.83-3.209.007-4.639l-38.603-66.875c-.475-.816-.719-1.737-.719-2.679v-28.84h-19.584zM124.418 134.578h-28.389c-2.961 0-5.357-2.398-5.357-5.357 0-2.955 2.396-5.354 5.357-5.354h28.389c2.956 0 5.355 2.399 5.355 5.354 0 2.959-2.399 5.357-5.355 5.357zM110.224 158.393h-28.39c-2.961 0-5.357-2.399-5.357-5.356 0-2.958 2.396-5.356 5.357-5.356h28.39c2.958 0 5.357 2.398 5.357 5.356 0 2.955-2.399 5.356-5.357 5.356zM99.831 55.2h53.911v15.377h-53.911zM153.741 75.934h-53.91c-2.958 0-5.357-2.4-5.357-5.357v-15.377c0-2.958 2.399-5.357 5.357-5.357h53.911c2.965 0 5.355 2.4 5.355 5.357v15.377c.001 2.957-2.391 5.357-5.356 5.357zm-48.553-10.714h43.196v-4.663h-43.196v4.663z"/></svg>