<svg xmlns="http://www.w3.org/2000/svg" width="250" height="250" viewBox="0 0 250 250"><path fill="#D12028" d="M250 125c0 69.039-55.963 125-125.004 125-69.034 0-124.996-55.961-124.996-125 0-69.036 55.962-125 124.996-125 69.041 0 125.004 55.964 125.004 125zM68.389 100.768h113.226v87.13h-113.226z"/><path fill="#fff" d="M181.613 193.255h-113.224c-2.961 0-5.357-2.399-5.357-5.356v-87.129c0-2.958 2.396-5.357 5.357-5.357h113.226c2.957 0 5.357 2.399 5.357 5.357v87.129c.001 2.956-2.4 5.356-5.359 5.356zm-107.867-10.715h102.512v-76.416h-102.512v76.416zM51.379 100.768l73.624-48.135 73.624 48.135zM198.697 106.124h-147.31799999999998c-2.371 0-4.457-1.555-5.133-3.829-.677-2.271.216-4.716 2.2-6.013l73.628-48.135c1.781-1.164 4.08-1.164 5.861 0l73.121 47.811c1.774.871 2.995 2.699 2.995 4.81.004 2.957-2.397 5.356-5.354 5.356zm-129.336-10.714h111.28l-55.639-36.377-55.641 36.377zM116.448 193.255h-23.915c-2.957 0-5.356-2.399-5.356-5.356v-51.655c0-2.958 2.399-5.356 5.356-5.356h23.915c2.961 0 5.356 2.398 5.356 5.356v51.655c.001 2.956-2.395 5.356-5.356 5.356zm-18.557-10.715h13.2v-40.942h-13.2v40.942zM140.182 136.241h17.896v17.892h-17.896zM158.076 159.49h-17.895c-2.959 0-5.357-2.399-5.357-5.357v-17.892c0-2.958 2.398-5.357 5.357-5.357h17.895c2.961 0 5.357 2.399 5.357 5.357v17.892c.001 2.958-2.396 5.357-5.357 5.357zm-12.538-10.715h7.183v-7.178h-7.183v7.178z"/></svg>