<svg xmlns="http://www.w3.org/2000/svg" width="250" height="250" viewBox="0 0 250 250"><g><path fill="#D12028" d="M250 125c0 69.038-55.963 124.998-125.002 124.998-69.035 0-124.998-55.96-124.998-124.998 0-69.035 55.963-124.998 124.998-124.998 69.039 0 125.002 55.963 125.002 124.998z"/><path fill="#fff" d="M205.068 88.404l-80.066-41.231-80.074 41.231 80.067 41.231zM124.995 134.992c-.84 0-1.681-.199-2.452-.594l-80.066-41.23c-1.786-.921-2.905-2.759-2.905-4.764 0-2.006 1.12-3.844 2.905-4.765l80.073-41.231c1.538-.788 3.366-.788 4.904 0l80.066 41.232c1.787.921 2.905 2.759 2.905 4.765 0 2.005-1.12 3.843-2.905 4.764l-80.073 41.231c-.767.393-1.608.592-2.452.592zm-68.366-46.588l68.365 35.204 68.373-35.204-68.365-35.205-68.373 35.205zM124.998 174.145c-33.011 0-59.869-26.856-59.869-59.869v-18.802c0-2.958 2.399-5.357 5.357-5.357h22.517c9.57-6.065 20.595-9.263 31.996-9.263 11.397 0 22.426 3.197 31.996 9.263h22.517c2.959 0 5.357 2.399 5.357 5.357v18.802c-.001 33.01-26.86 59.869-59.871 59.869zm-49.155-73.315v13.445c0 27.103 22.053 49.155 49.155 49.155 27.104 0 49.156-22.053 49.156-49.155v-13.445h-18.754c-1.067 0-2.11-.317-2.993-.913-8.112-5.462-17.593-8.35-27.41-8.35s-19.297 2.888-27.41 8.35c-.882.596-1.925.913-2.992.913h-18.752z"/><path fill="none" d="M70.486 101.566v86.329"/><path fill="#fff" d="M70.486 193.25c-2.958 0-5.357-2.398-5.357-5.355v-86.328c0-2.958 2.399-5.357 5.357-5.357 2.961 0 5.357 2.399 5.357 5.357v86.328c0 2.957-2.396 5.355-5.357 5.355z"/></g></svg>