<svg xmlns="http://www.w3.org/2000/svg" width="250" height="250" viewBox="0 0 250 250"><path fill="#D12028" d="M250 124.999c0 69.044-55.964 125.001-125 125.001s-125-55.957-125-125.001c0-69.036 55.964-124.999 125-124.999s125 55.963 125 124.999z"/><path fill="#fff" d="M73.452 130.357c-2.958 0-5.357-2.399-5.357-5.355 0-31.378 25.53-56.905 56.913-56.905 2.958 0 5.357 2.399 5.357 5.357s-2.399 5.357-5.357 5.357c-25.474 0-46.198 20.72-46.198 46.191-.001 2.956-2.401 5.355-5.358 5.355zM125.007 181.906c-2.964 0-5.357-2.399-5.357-5.357 0-2.957 2.393-5.355 5.357-5.355 25.468 0 46.191-20.719 46.191-46.19 0-2.958 2.393-5.357 5.356-5.357 2.957 0 5.357 2.4 5.357 5.357.002 31.379-25.528 56.902-56.904 56.902zM125.007 87.443l24.231-13.989-24.231-13.993zM125.007 92.801c-.928 0-1.855-.241-2.678-.719-1.66-.956-2.679-2.724-2.679-4.639v-27.982c0-1.915 1.019-3.683 2.679-4.639 1.653-.956 3.696-.956 5.356 0l24.232 13.993c1.652.956 2.68 2.724 2.68 4.639s-1.025 3.683-2.68 4.639l-24.232 13.989c-.83.478-1.757.719-2.678.719zm5.356-24.059v9.424l8.162-4.712-8.162-4.712zM123.751 162.562l-24.232 13.987 24.232 13.992zM123.751 195.898c-.921 0-1.849-.237-2.679-.719l-24.232-13.991c-1.66-.955-2.679-2.72-2.679-4.639 0-1.91 1.025-3.683 2.679-4.639l24.232-13.985c1.66-.956 3.704-.956 5.358 0 1.659.956 2.678 2.722 2.678 4.64v27.978c0 1.918-1.019 3.683-2.678 4.64-.83.478-1.751.715-2.679.715zm-13.518-19.349l8.161 4.717v-9.425l-8.161 4.708z"/></svg>