<svg xmlns="http://www.w3.org/2000/svg" width="250" height="250" viewBox="0 0 250 250"><g><g stroke="#fff" stroke-width="3" stroke-linecap="round" stroke-linejoin="round" stroke-miterlimit="10" fill="none"><path d="M-1840.593 532.281c-9.726 0-17.61 7.884-17.61 17.606 0 9.729 7.885 17.611 17.61 17.611M-1840.593 532.281c-9.726 0-17.61 7.884-17.61 17.606 0 9.729 7.885 17.611 17.61 17.611M-1858.203 549.891h17.61"/><path d="M-1833.063 567.502c9.726 0 17.61-7.885 17.61-17.611s-7.885-17.606-17.61-17.606v35.217z"/></g><path fill="#D12028" d="M250 125c0 69.04-55.961 125-125.002 125-69.035 0-124.998-55.96-124.998-125 0-69.037 55.963-125 124.998-125 69.041 0 125.002 55.963 125.002 125zM124.998 133.55l62.377 32.716-62.373 32.72-62.376-32.72z"/><path fill="#fff" d="M125.002 204.346c-.854 0-1.708-.205-2.489-.613l-62.375-32.722c-1.764-.926-2.87-2.753-2.87-4.745 0-1.988 1.106-3.815 2.87-4.742l62.373-32.715c1.559-.816 3.418-.816 4.979 0l62.375 32.715c1.764.927 2.867 2.754 2.867 4.742 0 1.992-1.104 3.819-2.867 4.745l-62.372 32.722c-.783.408-1.638.613-2.491.613zm-50.843-38.08l50.843 26.672 50.841-26.672-50.845-26.666-50.839 26.666z"/><path fill="#D12028" d="M124.998 100.836l62.377 32.714-62.373 32.72-62.376-32.72z"/><path fill="#fff" d="M125.002 171.626c-.854 0-1.708-.205-2.489-.615l-62.375-32.716c-1.764-.927-2.87-2.753-2.87-4.745 0-1.991 1.106-3.819 2.87-4.741l62.373-32.718c1.559-.814 3.418-.814 4.979 0l62.375 32.718c1.764.922 2.867 2.75 2.867 4.741 0 1.992-1.104 3.818-2.867 4.745l-62.372 32.716c-.783.41-1.638.615-2.491.615zm-50.842-38.076l50.842 26.673 50.838-26.673-50.842-26.666-50.838 26.666z"/><path fill="#D12028" d="M124.998 68.117l62.377 32.719-62.373 32.714-62.376-32.714z"/><path fill="#fff" d="M125.002 138.907c-.854 0-1.708-.205-2.489-.612l-62.375-32.717c-1.764-.923-2.87-2.75-2.87-4.742s1.106-3.818 2.87-4.745l62.373-32.716c1.559-.818 3.418-.818 4.979 0l62.375 32.716c1.764.927 2.867 2.753 2.867 4.745s-1.104 3.819-2.867 4.742l-62.372 32.717c-.783.407-1.638.612-2.491.612zm-50.842-38.071l50.842 26.666 50.838-26.666-50.842-26.672-50.838 26.672zM125 99.565c-2.959 0-5.357-2.399-5.357-5.355v-28.566c0-2.955 2.398-5.355 5.357-5.355s5.355 2.4 5.355 5.355v28.566c.002 2.956-2.395 5.355-5.355 5.355zM125 221.895c-2.959 0-5.357-2.396-5.357-5.354v-18.45c0-2.958 2.398-5.356 5.357-5.356s5.355 2.398 5.355 5.356v18.45c.002 2.954-2.395 5.354-5.355 5.354z"/><circle fill="#D12028" cx="125.001" cy="49.553" r="16.093"/><path fill="#fff" d="M125 71.001c-11.826 0-21.448-9.621-21.448-21.448 0-11.826 9.622-21.45 21.448-21.45 11.827 0 21.449 9.624 21.449 21.45 0 11.827-9.622 21.448-21.449 21.448zm0-32.184c-5.918 0-10.735 4.816-10.735 10.735 0 5.917 4.816 10.735 10.735 10.735s10.734-4.818 10.734-10.735c.002-5.918-4.815-10.735-10.734-10.735z"/></g></svg>