<svg xmlns="http://www.w3.org/2000/svg" width="250" height="250" viewBox="0 0 250 250"><path fill="#D12028" d="M250.002 125c0 69.039-55.964 125-125.006 125-69.035 0-124.998-55.961-124.998-125 0-69.036 55.963-125 124.998-125 69.042 0 125.006 55.964 125.006 125z"/><path fill="#fff" d="M166.458 147.4c0-22.894-41.462-86.418-41.462-86.418s-41.454 63.526-41.454 86.418c0 22.899 18.562 41.463 41.454 41.463 22.9 0 41.462-18.562 41.462-41.463zM124.996 194.221c-25.812 0-46.812-21.004-46.812-46.82 0-23.799 37.995-82.708 42.327-89.344 1.98-3.034 6.992-3.034 8.973 0 4.332 6.637 42.33 65.545 42.33 89.344 0 25.816-21.002 46.82-46.818 46.82zm0-123.275c-13.093 20.954-36.097 60.98-36.097 76.454 0 19.908 16.193 36.104 36.097 36.104 19.908 0 36.104-16.196 36.104-36.104.002-15.485-23.007-55.503-36.104-76.454z"/></svg>