<svg xmlns="http://www.w3.org/2000/svg" width="250" height="250" viewBox="0 0 250 250"><path fill="#D12028" d="M250 124.999c0 69.044-55.964 125.001-125 125.001s-125-55.957-125-125.001c0-69.036 55.964-124.999 125-124.999s125 55.963 125 124.999z"/><path fill="#fff" d="M172.426 130.943c10.854-10.855 10.854-28.447 0-39.293-10.847-10.854-28.438-10.854-39.289 0l-8.137 8.119-6.791-6.787-1.343-1.332c-10.851-10.854-28.442-10.854-39.293 0-10.854 10.846-10.854 28.438 0 39.293l47.427 47.427 47.426-47.427zM125 183.727c-1.371 0-2.741-.521-3.788-1.567l-47.426-47.427c-6.264-6.264-9.709-14.586-9.709-23.438s3.449-17.173 9.709-23.43c6.257-6.261 14.583-9.71 23.434-9.71 8.855 0 17.177 3.449 23.434 9.71l4.349 4.335 4.349-4.339c6.258-6.257 14.58-9.706 23.433-9.706s17.174 3.449 23.431 9.71c6.262 6.257 9.71 14.578 9.71 23.43s-3.444 17.179-9.71 23.438l-47.426 47.427c-1.049 1.044-2.419 1.567-3.79 1.567zm-27.78-94.86c-5.988 0-11.621 2.333-15.858 6.57-4.238 4.234-6.571 9.867-6.571 15.855 0 5.992 2.333 11.625 6.571 15.862l43.638 43.641 43.639-43.641c4.237-4.238 6.57-9.87 6.57-15.862 0-5.988-2.333-11.621-6.57-15.855-4.234-4.237-9.867-6.57-15.854-6.57-5.992 0-11.621 2.333-15.854 6.57l-8.146 8.123c-2.097 2.085-5.479 2.085-7.572-.004l-8.12-8.105c-4.252-4.251-9.885-6.584-15.873-6.584z"/></svg>