<svg xmlns="http://www.w3.org/2000/svg" width="250" height="250" viewBox="0 0 250 250"><g><path fill="#D12028" d="M250 125c0 69.04-55.961 125-125.002 125-69.035 0-124.998-55.96-124.998-125 0-69.037 55.963-125 124.998-125 69.041 0 125.002 55.963 125.002 125zM193.548 137.781c0-22.399-18.153-40.562-40.555-40.562-22.406 0-40.56 18.162-40.56 40.562h81.115z"/><path fill="#fff" d="M193.548 143.141h-81.115c-2.961 0-5.358-2.399-5.358-5.357 0-25.32 20.598-45.919 45.918-45.919 25.313 0 45.911 20.599 45.911 45.919.002 2.955-2.398 5.357-5.356 5.357zm-75.353-10.717h69.589c-2.587-16.877-17.204-29.85-34.791-29.85-17.589 0-32.21 12.973-34.798 29.85zM112.434 188.916c-2.961 0-5.358-2.398-5.358-5.357v-45.775c0-2.958 2.397-5.357 5.358-5.357 2.958 0 5.356 2.399 5.356 5.357v45.775c0 2.959-2.398 5.357-5.356 5.357zM193.548 188.916c-2.961 0-5.356-2.398-5.356-5.357v-45.775c0-2.958 2.396-5.357 5.356-5.357 2.958 0 5.356 2.399 5.356 5.357v45.775c.002 2.959-2.398 5.357-5.356 5.357zM204.973 143.141h-103.964c-2.958 0-5.357-2.399-5.357-5.357s2.399-5.357 5.357-5.357h103.964c2.959 0 5.355 2.399 5.355 5.357s-2.396 5.357-5.355 5.357zM204.973 188.916h-103.964c-2.958 0-5.357-2.398-5.357-5.357 0-2.957 2.399-5.355 5.357-5.355h103.964c2.959 0 5.355 2.398 5.355 5.355 0 2.959-2.396 5.357-5.355 5.357zM168.755 188.993c-2.961 0-5.356-2.399-5.356-5.357v-45.712c0-2.955 2.396-5.354 5.356-5.354 2.958 0 5.354 2.397 5.354 5.354v45.712c0 2.958-2.396 5.357-5.354 5.357zM137.93 188.993c-2.959 0-5.355-2.399-5.355-5.357v-45.712c0-2.955 2.396-5.354 5.355-5.354s5.358 2.397 5.358 5.354v45.712c0 2.958-2.399 5.357-5.358 5.357zM152.994 102.666c-2.958 0-5.357-2.399-5.357-5.355v-7.816c0-2.959 2.399-5.355 5.357-5.355 2.959 0 5.357 2.396 5.357 5.355v7.816c.001 2.956-2.398 5.355-5.357 5.355z"/><path fill="#D12028" d="M136.092 102.946l-75.778 75.778-39.438-39.438 75.778-75.778z"/><path fill="#fff" d="M60.312 184.083c-1.371 0-2.74-.524-3.787-1.569l-39.438-39.438c-1.004-1.003-1.57-2.371-1.57-3.787 0-1.419.566-2.784 1.57-3.787l75.779-75.783c2.093-2.092 5.483-2.092 7.576 0l39.438 39.441c1.004 1.001 1.57 2.368 1.57 3.785 0 1.419-.565 2.784-1.57 3.79l-75.78 75.777c-1.047 1.047-2.417 1.571-3.788 1.571zm-31.86-44.794l31.86 31.861 68.204-68.207-31.861-31.86-68.203 68.206zM96.654 68.863h-43.258c-2.958 0-5.356-2.399-5.356-5.357 0-2.955 2.398-5.354 5.356-5.354h43.259c2.958 0 5.355 2.399 5.355 5.354-.001 2.958-2.398 5.357-5.356 5.357zM68.738 96.778h-21.224c-2.961 0-5.357-2.4-5.357-5.358 0-2.961 2.396-5.36 5.357-5.36h21.225c2.958 0 5.357 2.399 5.357 5.36 0 2.958-2.4 5.358-5.358 5.358z"/><circle fill="#D12028" cx="78.483" cy="121.115" r="13.273"/><path fill="#fff" d="M78.483 139.745c-10.273 0-18.63-8.354-18.63-18.63 0-10.273 8.357-18.632 18.63-18.632 10.272 0 18.627 8.358 18.627 18.632 0 10.276-8.355 18.63-18.627 18.63zm0-26.546c-4.364 0-7.915 3.551-7.915 7.916 0 4.366 3.551 7.917 7.915 7.917 4.365 0 7.916-3.551 7.916-7.917-.001-4.365-3.551-7.916-7.916-7.916z"/></g></svg>