<svg xmlns="http://www.w3.org/2000/svg" width="250" height="250" viewBox="0 0 250 250"><g><g stroke="#fff" stroke-width="3" stroke-linecap="round" stroke-linejoin="round" stroke-miterlimit="10" fill="none"><path d="M-1840.593 532.281c-9.726 0-17.61 7.884-17.61 17.607 0 9.729 7.885 17.611 17.61 17.611M-1840.593 532.281c-9.726 0-17.61 7.884-17.61 17.607 0 9.729 7.885 17.611 17.61 17.611M-1858.203 549.891h17.61"/><path d="M-1833.063 567.502c9.726 0 17.61-7.885 17.61-17.611s-7.885-17.607-17.61-17.607v35.218z"/></g><path fill="#fff" stroke="#fff" stroke-width="3" stroke-linecap="round" stroke-linejoin="round" stroke-miterlimit="10" d="M-1760.956 677.32l5.324 10.785 11.903 1.731-8.613 8.395 2.033 11.855-10.647-5.598-10.646 5.598 2.034-11.855-8.614-8.395 11.904-1.731z"/><path fill="#D12028" d="M250 125c0 69.04-55.962 125-125.003 125-69.035 0-124.997-55.96-124.997-125 0-69.037 55.962-125 124.997-125 69.041 0 125.003 55.963 125.003 125z"/><path fill="#fff" d="M138.589 120.813c-21.541 0-39.068-17.529-39.068-39.074 0-21.542 17.527-39.071 39.068-39.071 21.548 0 39.076 17.529 39.076 39.071 0 21.545-17.528 39.074-39.076 39.074zm0-67.429c-15.634 0-28.355 12.722-28.355 28.355 0 15.637 12.721 28.358 28.355 28.358 15.638 0 28.361-12.722 28.361-28.358 0-15.634-12.723-28.355-28.361-28.355z"/><circle fill="#D12028" cx="101.545" cy="91.307" r="21.372"/><path fill="#fff" d="M101.544 118.038c-14.736 0-26.727-11.992-26.727-26.731 0-14.737 11.99-26.729 26.727-26.729 14.74 0 26.729 11.992 26.729 26.729 0 14.739-11.989 26.731-26.729 26.731zm0-42.748c-8.83 0-16.013 7.188-16.013 16.017 0 8.831 7.183 16.019 16.013 16.019 8.831 0 16.015-7.188 16.015-16.019 0-8.829-7.184-16.017-16.015-16.017z"/><path fill="#D12028" d="M167.115 99.571l-42.343 109.947-42.341-109.947z"/><path fill="#fff" d="M124.772 214.876c-2.216 0-4.203-1.365-5-3.435l-42.341-109.944c-.636-1.647-.416-3.505.583-4.958.999-1.457 2.653-2.329 4.417-2.329h84.685c1.764 0 3.418.872 4.417 2.329.999 1.453 1.218 3.311.583 4.958l-42.343 109.944c-.796 2.07-2.785 3.435-5.001 3.435zm-34.539-109.95l34.539 89.688 34.541-89.688h-69.08zM138.759 178.552c-2.216 0-4.202-1.362-4.999-3.432l-28.355-73.629c-.634-1.646-.416-3.499.583-4.955.999-1.46 2.652-2.326 4.417-2.326h56.71c1.764 0 3.418.866 4.417 2.326.999 1.456 1.218 3.309.583 4.955l-28.356 73.629c-.797 2.069-2.782 3.432-5 3.432zm-20.55-73.626l20.55 53.363 20.554-53.363h-41.104zM153.448 140.412c-2.218 0-4.204-1.365-5-3.436l-13.666-35.485c-.636-1.646-.416-3.499.583-4.955.998-1.46 2.65-2.326 4.417-2.326h27.333c1.764 0 3.418.866 4.417 2.326.999 1.456 1.218 3.309.583 4.955l-13.668 35.485c-.799 2.071-2.785 3.436-4.999 3.436zm-5.864-35.486l5.863 15.224 5.865-15.224h-11.728z"/></g></svg>