<svg xmlns="http://www.w3.org/2000/svg" width="250" height="250" viewBox="0 0 250 250"><g><path fill="#D12028" d="M250 125c0 69.04-55.964 125-125.003 125-69.033 0-124.997-55.96-124.997-125 0-69.037 55.964-125 124.997-125 69.039 0 125.003 55.963 125.003 125z"/><path fill="#fff" d="M154.753 209.535h-59.506c-13.213 0-23.962-10.75-23.962-23.962v-121.143c0-13.212 10.749-23.959 23.962-23.959h59.506c13.213 0 23.962 10.747 23.962 23.959v121.144c0 13.211-10.749 23.961-23.962 23.961zm-59.506-158.348c-7.306 0-13.247 5.941-13.247 13.243v121.144c0 7.305 5.942 13.249 13.248 13.249h59.506c7.307 0 13.248-5.944 13.248-13.249v-121.144c0-7.302-5.941-13.243-13.248-13.243h-59.507zM106.052 101.392h15.97l3.229 19.248 11.132-7.666 5.59 39.202-10.677-21.226-12.479 9.22zM141.973 155.747c-1.32 0-2.57-.735-3.189-1.968l-8.771-17.439-9.07 6.702c-.92.679-2.112.878-3.206.533-1.091-.349-1.951-1.199-2.307-2.288l-12.767-38.775c-.361-1.092-.174-2.282.497-3.212.673-.926 1.749-1.479 2.894-1.479h15.97c1.744 0 3.233 1.262 3.522 2.983l2.301 13.714 6.516-4.486c1.02-.703 2.334-.826 3.457-.33 1.134.496 1.927 1.545 2.104 2.765l5.59 39.202c.245 1.735-.799 3.392-2.468 3.916-.358.11-.719.162-1.073.162zm-30.987-50.781l9.679 29.398 8.509-6.289c.848-.627 1.928-.853 2.951-.599 1.023.24 1.889.926 2.361 1.864l.869 1.729-1.694-11.887-6.388 4.395c-1.01.698-2.295.82-3.418.351-1.125-.479-1.928-1.493-2.129-2.702l-2.729-16.261h-8.011v.001zM173.357 85.128h-96.715c-1.972 0-3.572-1.599-3.572-3.574 0-1.972 1.6-3.567 3.572-3.567h96.715c1.973 0 3.572 1.596 3.572 3.567.001 1.975-1.599 3.574-3.572 3.574zM173.357 172.014h-96.715c-1.972 0-3.572-1.599-3.572-3.57 0-1.976 1.6-3.569 3.572-3.569h96.715c1.973 0 3.572 1.596 3.572 3.569.001 1.971-1.599 3.57-3.572 3.57zM130.157 67.85h-12.289c-2.959 0-5.359-2.4-5.359-5.358 0-2.955 2.399-5.354 5.359-5.354h12.289c2.959 0 5.356 2.399 5.356 5.354.001 2.957-2.397 5.358-5.356 5.358zM123.996 192.248c-1.394 0-2.787-.573-3.786-1.57-.963-.969-1.536-2.357-1.536-3.787 0-1.431.573-2.787 1.573-3.785 1.963-1.967 5.569-2.002 7.569 0 .965.998 1.537 2.354 1.537 3.785 0 1.43-.572 2.818-1.571 3.787-.964.997-2.359 1.57-3.786 1.57z"/></g></svg>