<svg xmlns="http://www.w3.org/2000/svg" width="250" height="250" viewBox="0 0 250 250"><path fill="#D12028" d="M249.999 124.999c0 69.044-55.963 125.001-125.002 125.001-69.035 0-124.998-55.957-124.998-125.001 0-69.036 55.963-124.999 124.998-124.999 69.039 0 125.002 55.963 125.002 124.999zM181.559 85.389s-25.32-20.518-56.555-20.518c-31.242 0-56.562 17.968-56.562 20.518 0 81.618 56.556 115.511 56.562 115.518-.001 0 56.555-33.9 56.555-115.518z"/><path fill="#fff" d="M125.003 206.257c-.969 0-1.942-.258-2.804-.788-2.414-1.472-59.116-37.031-59.116-120.08 0-8.995 32.801-25.875 61.919-25.875 32.754 0 58.835 20.825 59.923 21.715 1.257 1.015 1.988 2.546 1.988 4.161 0 83.689-56.744 118.665-59.158 120.108-.842.508-1.796.759-2.752.759zm-51.194-119.113c.684 66.575 40.076 99.374 51.167 107.297 10.838-7.89 50.15-40.975 51.204-106.38-6.375-4.538-27.105-17.833-51.176-17.833-25.586 0-46.546 12.775-51.195 16.916z"/><path fill="#D12028" d="M114.666 99.229h13.865c8.217 0 14.879 6.661 14.879 14.882 0 8.217-6.662 14.88-14.879 14.88h-13.858"/><path fill="#fff" d="M128.531 134.348h-13.858c-2.961 0-5.357-2.398-5.357-5.356 0-2.959 2.396-5.358 5.357-5.358h13.858c5.253 0 9.521-4.272 9.521-9.521 0-5.252-4.269-9.525-9.521-9.525h-13.865c-2.958 0-5.357-2.399-5.357-5.357s2.399-5.357 5.357-5.357h13.865c11.152 0 20.234 9.079 20.234 20.239.003 11.155-9.079 20.235-20.234 20.235z"/><path fill="#231F20" d="M114.666 153.035v-53.806 53.806z"/><path fill="#fff" d="M114.666 158.393c-2.958 0-5.357-2.399-5.357-5.356v-53.808c0-2.958 2.399-5.357 5.357-5.357 2.961 0 5.357 2.399 5.357 5.357v53.807c0 2.956-2.396 5.357-5.357 5.357z"/></svg>