<svg xmlns="http://www.w3.org/2000/svg" width="250" height="250" viewBox="0 0 250 250"><path fill="#D12028" d="M249.999 124.999c0 69.044-55.963 125.001-125.002 125.001-69.035 0-124.998-55.957-124.998-125.001 0-69.036 55.963-124.999 124.998-124.999 69.039 0 125.002 55.963 125.002 124.999zM83.396 195.885l-32.714-20.39v-89.614l32.714 20.392z"/><path fill="#fff" d="M83.396 201.242c-.987 0-1.967-.271-2.835-.811l-32.714-20.389c-1.569-.984-2.521-2.7-2.521-4.549v-89.612c0-1.946 1.053-3.739 2.755-4.684 1.706-.945 3.784-.893 5.434.14l32.714 20.393c1.569.977 2.525 2.696 2.525 4.544v89.611c0 1.946-1.057 3.738-2.759 4.682-.81.453-1.706.675-2.599.675zm-27.357-28.724l22 13.713v-76.981l-22-13.717v76.985z"/><path fill="#D12028" d="M83.396 195.885l32.714-20.39v-89.614l-32.714 20.392z"/><path fill="#fff" d="M83.396 201.242c-.896 0-1.792-.225-2.602-.678-1.702-.941-2.755-2.733-2.755-4.681v-89.611c0-1.849.952-3.568 2.521-4.548l32.718-20.393c1.653-1.025 3.731-1.081 5.434-.136 1.702.945 2.755 2.738 2.755 4.684v89.614c0 1.849-.952 3.564-2.521 4.549l-32.718 20.389c-.865.54-1.849.811-2.832.811zm5.357-91.993v76.981l22-13.713v-76.986l-22 13.718z"/><path fill="#D12028" d="M148.822 195.885l-32.712-20.39v-89.614l32.712 20.392z"/><path fill="#fff" d="M148.822 201.242c-.983 0-1.967-.271-2.832-.811l-32.712-20.389c-1.57-.984-2.525-2.7-2.525-4.549v-89.612c0-1.946 1.057-3.739 2.759-4.684 1.706-.945 3.784-.893 5.434.14l32.715 20.393c1.569.977 2.519 2.696 2.519 4.544v89.611c0 1.946-1.054 3.738-2.756 4.682-.809.453-1.701.675-2.602.675zm-27.355-28.724l21.999 13.713v-76.981l-21.999-13.717v76.985zM175.732 196.156c-2.957 0-5.356-2.399-5.356-5.356v-132.995h-48.909v54.269c0 2.958-2.396 5.357-5.357 5.357-2.958 0-5.357-2.399-5.357-5.357v-59.626c0-2.958 2.399-5.357 5.357-5.357h59.623c2.965 0 5.356 2.399 5.356 5.357v138.352c.001 2.957-2.392 5.356-5.357 5.356zM158.448 81.877h-4.115c-2.958 0-5.356-2.399-5.356-5.357s2.398-5.357 5.356-5.357h4.115c2.958 0 5.356 2.4 5.356 5.357s-2.398 5.357-5.356 5.357zM137.509 81.877h-4.109c-2.959 0-5.357-2.399-5.357-5.357s2.398-5.357 5.357-5.357h4.107c2.965 0 5.355 2.4 5.355 5.357s-2.389 5.357-5.353 5.357zM158.448 100.32h-4.115c-2.958 0-5.356-2.399-5.356-5.357s2.398-5.357 5.356-5.357h4.115c2.958 0 5.356 2.4 5.356 5.357s-2.398 5.357-5.356 5.357zM137.509 100.32h-4.109c-2.959 0-5.357-2.399-5.357-5.357s2.398-5.357 5.357-5.357h4.107c2.965 0 5.355 2.4 5.355 5.357s-2.389 5.357-5.353 5.357z"/></svg>