<svg xmlns="http://www.w3.org/2000/svg" width="250" height="250" viewBox="0 0 250 250"><path fill="#D12028" d="M250 125c0 69.039-55.963 125-125.003 125-69.035 0-124.997-55.961-124.997-125 0-69.036 55.962-125 124.997-125 69.04 0 125.003 55.964 125.003 125z"/><path fill="#fff" d="M105.738 61.642h-54.338v54.335l27.169 21.572 27.169-21.572zM78.569 142.906c-1.179 0-2.358-.389-3.334-1.162l-27.162-21.571c-1.283-1.018-2.03-2.56-2.03-4.196v-54.335c0-2.958 2.4-5.357 5.357-5.357h54.337c2.958 0 5.357 2.4 5.357 5.357v54.335c0 1.636-.746 3.181-2.03 4.196l-27.168 21.571c-.973.776-2.151 1.162-3.327 1.162zm-21.811-29.517l21.812 17.32 21.812-17.32v-46.39h-43.624v46.39z"/><path fill="#D12028" d="M105.738 164.727c0-15.009-12.165-27.178-27.175-27.178-15.004 0-27.169 12.169-27.169 27.178 0 15.006 12.165 27.172 27.169 27.172 15.01-.001 27.175-12.167 27.175-27.172z"/><path fill="#fff" d="M78.562 197.255c-17.934 0-32.526-14.593-32.526-32.528 0-17.938 14.592-32.535 32.526-32.535 17.94 0 32.532 14.598 32.532 32.535.001 17.935-14.592 32.528-32.532 32.528zm0-54.349c-12.025 0-21.812 9.785-21.812 21.818 0 12.028 9.787 21.815 21.812 21.815 12.032 0 21.818-9.787 21.818-21.815.001-12.033-9.785-21.818-21.818-21.818z"/><path fill="#D12028" d="M188.305 61.642h-54.334v78.857l27.166 21.575 27.168-21.575z"/><path fill="#fff" d="M161.137 167.432c-1.181 0-2.354-.387-3.328-1.16l-27.168-21.576c-1.281-1.019-2.027-2.561-2.027-4.195v-78.859c0-2.958 2.396-5.357 5.357-5.357h54.334c2.961 0 5.356 2.4 5.356 5.357v78.857c0 1.636-.747 3.178-2.022 4.196l-27.168 21.574c-.978.776-2.157 1.163-3.334 1.163zm-21.81-29.521l21.81 17.323 21.812-17.323v-70.912h-43.62l-.002 70.912zM188.305 189.244c0-15.012-12.166-27.17-27.168-27.17-15.012 0-27.177 12.158-27.177 27.17 0 15.004 12.165 27.173 27.177 27.173 15.002 0 27.168-12.169 27.168-27.173zM161.137 221.773c-17.941 0-32.533-14.592-32.533-32.529 0-17.936 14.592-32.526 32.533-32.526 17.932 0 32.524 14.593 32.524 32.526 0 17.938-14.593 32.529-32.524 32.529zm0-54.341c-12.033 0-21.82 9.786-21.82 21.812 0 12.029 9.787 21.814 21.82 21.814 12.023 0 21.812-9.785 21.812-21.814-.002-12.026-9.789-21.812-21.812-21.812zM161.137 137.657c-2.963 0-5.357-2.399-5.357-5.357v-43.659c0-2.958 2.396-5.357 5.357-5.357 2.956 0 5.355 2.4 5.355 5.357v43.659c0 2.958-2.399 5.357-5.355 5.357z"/></svg>