<svg xmlns="http://www.w3.org/2000/svg" width="250" height="250" viewBox="0 0 250 250"><path fill="#D12028" d="M250 125.001c0 69.039-55.963 124.999-125.003 124.999-69.036 0-124.997-55.96-124.997-124.999 0-69.037 55.961-125.001 124.997-125.001 69.04 0 125.003 55.964 125.003 125.001zM67.506 113.624v42.038c0 30.066 24.393 54.427 54.453 54.427 30.061 0 54.415-24.358 54.415-54.427v-42.038"/><path fill="#fff" d="M121.958 215.443c-32.976 0-59.809-26.816-59.809-59.782v-42.038c0-2.957 2.398-5.357 5.356-5.357 2.961 0 5.357 2.4 5.357 5.357v42.038c0 27.058 22.024 49.067 49.095 49.067 27.05 0 49.057-22.011 49.057-49.067v-42.038c0-2.957 2.396-5.357 5.357-5.357s5.357 2.4 5.357 5.357v42.038c.002 32.966-26.811 59.782-59.77 59.782zM110.292 165.109c0 6.435 5.218 11.648 11.65 11.648 6.43 0 11.645-5.215 11.645-11.648h-23.295zM121.942 182.115c-9.376 0-17.006-7.629-17.006-17.006 0-2.957 2.4-5.357 5.356-5.357h23.295c2.96 0 5.354 2.4 5.354 5.357 0 9.377-7.627 17.006-16.999 17.006zm-3.297-11.648c1.915 1.182 4.673 1.188 6.589 0h-6.589zM102.892 140.325c-2.958 0-5.357-2.398-5.357-5.356v-5.748c0-2.957 2.399-5.357 5.357-5.357 2.96 0 5.356 2.4 5.356 5.357v5.748c0 2.958-2.396 5.356-5.356 5.356zM140.986 140.325c-2.961 0-5.356-2.398-5.356-5.356v-5.748c0-2.957 2.396-5.357 5.356-5.357 2.962 0 5.356 2.4 5.356 5.357v5.748c.002 2.958-2.394 5.356-5.356 5.356zM125.003 152.386h-6.201c-2.958 0-5.357-2.397-5.357-5.356 0-4.662 3.794-8.454 8.458-8.454s8.458 3.792 8.458 8.454c-.002 2.956-2.401 5.356-5.358 5.356z"/><circle fill="#D12028" cx="86.849" cy="74.631" r="16.036"/><path fill="#fff" d="M86.849 96.025c-11.795 0-21.394-9.599-21.394-21.394s9.599-21.393 21.394-21.393 21.393 9.598 21.393 21.393-9.598 21.394-21.393 21.394zm0-32.073c-5.888 0-10.679 4.792-10.679 10.679 0 5.887 4.791 10.679 10.679 10.679 5.886 0 10.679-4.792 10.679-10.679-.001-5.887-4.793-10.679-10.679-10.679z"/><path fill="#231F20" d="M137.824 93.36c0-2.772-2.246-5.019-5.018-5.019-2.774 0-5.021 2.247-5.021 5.019 0 2.77 2.246 5.019 5.021 5.019 2.772 0 5.018-2.25 5.018-5.019z"/><path fill="#fff" d="M132.809 103.736c-5.724 0-10.378-4.656-10.378-10.376s4.655-10.376 10.378-10.376c5.721 0 10.373 4.656 10.373 10.376s-4.655 10.376-10.373 10.376zM132.807 114.091c-2.963 0-5.357-2.399-5.357-5.357v-30.744c0-2.958 2.396-5.357 5.357-5.357 2.959 0 5.355 2.399 5.355 5.357v30.744c0 2.958-2.396 5.357-5.355 5.357zM121.938 109.585c-1.371 0-2.742-.523-3.789-1.569-2.092-2.094-2.092-5.483 0-7.576l21.735-21.736c2.093-2.092 5.482-2.092 7.575 0 2.093 2.093 2.093 5.483 0 7.576l-21.734 21.736c-1.046 1.046-2.416 1.569-3.787 1.569zM148.175 98.717h-30.739c-2.958 0-5.358-2.4-5.358-5.357 0-2.958 2.4-5.357 5.358-5.357h30.739c2.958 0 5.357 2.399 5.357 5.357 0 2.957-2.399 5.357-5.357 5.357zM143.676 109.588c-1.374 0-2.74-.523-3.787-1.569l-21.74-21.739c-2.092-2.093-2.092-5.483 0-7.576 2.094-2.092 5.484-2.092 7.576 0l21.739 21.739c2.093 2.093 2.093 5.482 0 7.576-1.046 1.046-2.42 1.569-3.788 1.569zM161.783 78.851c-5.721 0-10.372-4.653-10.372-10.373s4.651-10.373 10.372-10.373 10.371 4.653 10.371 10.373-4.65 10.373-10.371 10.373zM135.396 49.554c0-5.545-4.496-10.041-10.042-10.041-5.549 0-10.042 4.496-10.042 10.041 0 5.546 4.493 10.042 10.042 10.042 5.546-.001 10.042-4.496 10.042-10.042zM125.356 64.952c-8.493 0-15.398-6.909-15.398-15.398s6.905-15.398 15.398-15.398c8.49 0 15.397 6.909 15.397 15.398s-6.907 15.398-15.397 15.398zm0-20.082c-2.585 0-4.685 2.1-4.685 4.684s2.1 4.685 4.685 4.685c2.583 0 4.683-2.1 4.683-4.685 0-2.584-2.1-4.684-4.683-4.684zM67.506 131.471c-6.923 0-12.535 5.611-12.535 12.538s5.612 12.538 12.535 12.538"/><path fill="#fff" d="M67.506 161.902c-9.863 0-17.891-8.027-17.891-17.895s8.028-17.896 17.891-17.896c2.961 0 5.357 2.399 5.357 5.356 0 2.958-2.396 5.357-5.357 5.357-3.958 0-7.177 3.223-7.177 7.182s3.219 7.181 7.177 7.181c2.961 0 5.357 2.4 5.357 5.357 0 2.961-2.396 5.358-5.357 5.358zM176.373 156.547c6.923 0 12.538-5.611 12.538-12.538s-5.615-12.538-12.538-12.538"/><path fill="#fff" d="M176.373 161.902c-2.962 0-5.357-2.397-5.357-5.355 0-2.957 2.396-5.357 5.357-5.357 3.958 0 7.182-3.222 7.182-7.181s-3.224-7.182-7.182-7.182c-2.962 0-5.357-2.399-5.357-5.356s2.396-5.356 5.357-5.356c9.865 0 17.895 8.028 17.895 17.896 0 9.864-8.03 17.891-17.895 17.891z"/></svg>