<svg xmlns="http://www.w3.org/2000/svg" width="250" height="250" viewBox="0 0 250 250"><path fill="#D12028" d="M250 125c0 69.039-55.964 125-124.999 125-69.036 0-125.001-55.961-125.001-125 0-69.036 55.965-125 125.001-125 69.035 0 124.999 55.964 124.999 125z"/><path fill="#fff" d="M96.479 151.876c0-9.424-7.631-17.058-17.055-17.058s-17.055 7.634-17.055 17.058c0 9.417 7.631 17.056 17.055 17.056s17.055-7.639 17.055-17.056zM79.423 174.288c-12.361 0-22.413-10.056-22.413-22.412 0-12.36 10.052-22.415 22.413-22.415 12.36 0 22.412 10.055 22.412 22.415 0 12.356-10.051 22.412-22.412 22.412zm0-34.113c-6.453 0-11.698 5.249-11.698 11.701 0 6.449 5.245 11.698 11.698 11.698 6.452 0 11.698-5.249 11.698-11.698 0-6.452-5.246-11.701-11.698-11.701zM186.572 151.876c0-9.424-7.646-17.058-17.062-17.058s-17.055 7.634-17.055 17.058c0 9.417 7.638 17.056 17.055 17.056s17.062-7.639 17.062-17.056zM169.51 174.288c-12.354 0-22.412-10.056-22.412-22.412 0-12.36 10.06-22.415 22.412-22.415 12.361 0 22.42 10.055 22.42 22.415 0 12.356-10.059 22.412-22.42 22.412zm0-34.113c-6.445 0-11.697 5.249-11.697 11.701 0 6.449 5.252 11.698 11.697 11.698 6.452 0 11.705-5.249 11.705-11.698 0-6.452-5.253-11.701-11.705-11.701zM152.455 157.232h-55.976c-2.958 0-5.357-2.398-5.357-5.356 0-2.957 2.399-5.356 5.357-5.356h55.977c2.965 0 5.356 2.399 5.356 5.356 0 2.958-2.392 5.356-5.357 5.356zM186.572 157.232c-2.924 0-5.309-2.344-5.357-5.272-.049-2.957 2.316-5.396 5.273-5.44 3.863-.062 13.128-.041 19.099-.021v-29.359h-162.743v29.381h19.524c2.958 0 5.357 2.398 5.357 5.355 0 2.958-2.4 5.357-5.357 5.357h-24.882c-2.958 0-5.357-2.399-5.357-5.357v-40.094c0-2.958 2.399-5.357 5.357-5.357h173.458c2.959 0 5.357 2.399 5.357 5.357v40.094c0 1.428-.572 2.794-1.576 3.799-1.012 1.004-2.226 1.643-3.809 1.559-.182 0-18.583-.09-24.262 0l-.082-.002zM179.639 117.139c-2.965 0-5.356-2.399-5.356-5.357 0-27.605-22.462-50.063-50.065-50.063-27.605 0-50.063 22.458-50.063 50.063 0 2.958-2.396 5.357-5.357 5.357s-5.357-2.399-5.357-5.357c0-33.514 27.264-60.777 60.777-60.777 33.512 0 60.78 27.264 60.78 60.777-.002 2.957-2.402 5.357-5.359 5.357zM68.796 111.782c0-30.608 24.812-55.42 55.42-55.42v55.42h-55.42zM124.216 117.139h-55.42c-2.961 0-5.357-2.399-5.357-5.357 0-33.514 27.264-60.777 60.777-60.777 2.959 0 5.359 2.399 5.359 5.357v55.42c0 2.957-2.399 5.357-5.359 5.357zm-49.78-10.715h44.424v-44.419c-23.338 2.494-41.927 21.083-44.424 44.419z"/></svg>