<svg xmlns="http://www.w3.org/2000/svg" width="250" height="250" viewBox="0 0 250 250"><g><g stroke="#fff" stroke-width="3" stroke-linecap="round" stroke-linejoin="round" stroke-miterlimit="10" fill="none"><path d="M-1840.593 532.281c-9.726 0-17.61 7.884-17.61 17.607 0 9.729 7.885 17.611 17.61 17.611M-1840.593 532.281c-9.726 0-17.61 7.884-17.61 17.607 0 9.729 7.885 17.611 17.61 17.611M-1858.203 549.891h17.61"/><path d="M-1833.063 567.502c9.726 0 17.61-7.885 17.61-17.611s-7.885-17.607-17.61-17.607v35.218z"/></g><path fill="#fff" stroke="#fff" stroke-width="3" stroke-linecap="round" stroke-linejoin="round" stroke-miterlimit="10" d="M-1760.956 677.32l5.324 10.785 11.903 1.731-8.613 8.395 2.033 11.855-10.647-5.598-10.646 5.598 2.034-11.855-8.614-8.395 11.904-1.731z"/><path fill="#D12028" d="M250 124.997c0 69.045-55.964 125.003-125.002 125.003-69.036 0-124.998-55.958-124.998-125.003 0-69.033 55.962-124.997 124.998-124.997 69.038 0 125.002 55.964 125.002 124.997zM38.353 83.51h47.832v93.823h-47.832z"/><path fill="#fff" d="M86.185 182.693h-47.832c-2.959 0-5.358-2.399-5.358-5.36v-93.823c0-2.958 2.398-5.357 5.358-5.357h47.832c2.959 0 5.357 2.399 5.357 5.357v93.823c0 2.961-2.398 5.36-5.357 5.36zm-42.477-10.714h37.12v-83.112h-37.12v83.112z"/><path fill="#D12028" d="M132.613 46.603h47.832v130.73h-47.832z"/><path fill="#fff" d="M180.447 182.693h-47.833c-2.96 0-5.356-2.399-5.356-5.36v-130.73c0-2.958 2.396-5.357 5.356-5.357h47.833c2.959 0 5.355 2.399 5.355 5.357v130.73c.001 2.961-2.396 5.36-5.355 5.36zm-42.478-10.714h37.122v-120.019h-37.122v120.019zM86.185 127.613h46.428v49.72h-46.428zM132.613 182.693h-46.428c-2.958 0-5.356-2.399-5.356-5.36v-49.72c0-2.958 2.398-5.354 5.356-5.354h46.428c2.96 0 5.357 2.396 5.357 5.354v49.72c-.001 2.961-2.397 5.36-5.357 5.36zm-41.071-10.714h35.715v-39.004h-35.715v39.004z"/><path fill="#D12028" d="M180.447 141.07h36.262v36.263h-36.262z"/><path fill="#fff" d="M216.709 182.693h-36.262c-2.959 0-5.356-2.399-5.356-5.36v-36.263c0-2.959 2.396-5.358 5.356-5.358h36.262c2.959 0 5.357 2.399 5.357 5.358v36.263c0 2.961-2.398 5.36-5.357 5.36zm-30.906-10.714h25.551v-25.551h-25.551v25.551z"/><path fill="none" d="M148.421 64.276"/><path fill="#fff" d="M148.411 69.638c-1.396 0-2.787-.573-3.787-1.57-1-1.001-1.571-2.397-1.571-3.791 0-1.388.571-2.784 1.571-3.784 2-1.998 5.571-1.998 7.571 0 1 1 1.572 2.396 1.572 3.784 0 1.394-.572 2.79-1.537 3.791-1.035.996-2.391 1.57-3.819 1.57z"/><path fill="none" d="M164.641 64.276"/><path fill="#fff" d="M164.622 69.638c-1.392 0-2.784-.573-3.784-1.57-.964-1.001-1.572-2.397-1.572-3.791 0-1.425.607-2.784 1.572-3.784 1.999-1.998 5.57-1.998 7.605 0 1 1 1.572 2.396 1.572 3.784 0 1.394-.572 2.79-1.572 3.791-1.034.996-2.39 1.57-3.821 1.57z"/><path fill="none" d="M148.421 82.108"/><path fill="#fff" d="M148.411 87.46c-1.396 0-2.787-.573-3.787-1.576-1-.997-1.571-2.356-1.571-3.784 0-1.391.571-2.787 1.571-3.785 1.964-1.966 5.606-1.966 7.571 0 1 .998 1.572 2.395 1.572 3.785 0 1.428-.572 2.787-1.572 3.784-1 1.003-2.356 1.576-3.784 1.576z"/><path fill="none" d="M164.641 82.108"/><path fill="#fff" d="M164.622 87.46c-1.392 0-2.784-.573-3.784-1.576-.964-.997-1.572-2.356-1.572-3.784 0-1.391.607-2.787 1.572-3.785 1.999-1.966 5.605-1.966 7.605 0 .966.998 1.537 2.395 1.537 3.785 0 1.428-.571 2.787-1.537 3.784-.998 1.003-2.39 1.576-3.821 1.576z"/><path fill="none" d="M148.421 99.934"/><path fill="#fff" d="M148.411 105.279c-1.396 0-2.787-.572-3.787-1.536-1-1.037-1.571-2.394-1.571-3.821 0-1.394.571-2.787 1.571-3.787 2-1.998 5.571-1.998 7.571 0 1 1 1.572 2.394 1.572 3.787 0 1.428-.572 2.784-1.537 3.784-1.035 1.001-2.391 1.573-3.819 1.573z"/><path fill="none" d="M164.641 99.934"/><path fill="#fff" d="M164.622 105.279c-1.392 0-2.75-.572-3.784-1.536-1-1.037-1.536-2.394-1.536-3.821 0-1.394.536-2.787 1.536-3.787 2.037-1.998 5.605-1.964 7.605 0 .966 1 1.537 2.394 1.537 3.787 0 1.428-.571 2.784-1.537 3.784-1.034 1.001-2.39 1.573-3.821 1.573z"/><path fill="none" d="M148.421 117.759"/><path fill="#fff" d="M148.411 123.137c-1.396 0-2.787-.57-3.787-1.57-1-1.038-1.571-2.397-1.571-3.825 0-1.391.571-2.747 1.571-3.784 2-1.964 5.606-1.964 7.571 0 1 1 1.572 2.394 1.572 3.784 0 1.428-.572 2.821-1.572 3.825-1 .999-2.356 1.57-3.784 1.57z"/><path fill="none" d="M164.641 117.759"/><path fill="#fff" d="M164.622 123.137c-1.392 0-2.75-.57-3.784-1.57-1-1.038-1.572-2.397-1.572-3.825 0-1.391.572-2.747 1.572-3.784 1.999-2 5.643-1.964 7.605 0 .966 1 1.537 2.394 1.537 3.784 0 1.428-.571 2.821-1.571 3.825-1 .999-2.356 1.57-3.787 1.57z"/><path fill="none" d="M148.421 135.587"/><path fill="#fff" d="M148.411 140.956c-1.396 0-2.787-.57-3.787-1.57s-1.571-2.391-1.571-3.786c0-1.426.571-2.781 1.571-3.785 2-1.998 5.571-1.998 7.571-.035 1 1.039 1.572 2.396 1.572 3.82 0 1.396-.572 2.786-1.537 3.786-1.035 1-2.391 1.57-3.819 1.57z"/><path fill="none" d="M164.641 135.587"/><path fill="#fff" d="M164.66 140.956c-1.43 0-2.821-.57-3.821-1.57s-1.573-2.391-1.573-3.786c0-1.426.573-2.822 1.573-3.82 1.999-1.963 5.57-1.963 7.571 0 1 .998 1.57 2.396 1.57 3.82 0 1.396-.57 2.786-1.57 3.786-1.001 1-2.357 1.57-3.75 1.57z"/><path fill="none" d="M148.421 153.412"/><path fill="#fff" d="M148.411 158.775c-1.396 0-2.787-.569-3.787-1.567-1-1-1.571-2.394-1.571-3.787 0-1.428.571-2.787 1.571-3.784 2-2.001 5.606-2.001 7.571 0 1 .961 1.572 2.356 1.572 3.784 0 1.394-.572 2.787-1.572 3.787-.966.998-2.356 1.567-3.784 1.567z"/><path fill="none" d="M54.16 99.934"/><path fill="#fff" d="M54.162 105.279c-1.394 0-2.787-.572-3.786-1.536-1.001-1.037-1.572-2.394-1.572-3.821 0-1.394.571-2.787 1.572-3.787 2-1.998 5.571-1.998 7.57 0 1 1 1.573 2.394 1.573 3.787s-.573 2.784-1.573 3.784c-1 1.001-2.392 1.573-3.784 1.573z"/><path fill="none" d="M70.378 99.934"/><path fill="#fff" d="M70.376 105.279c-1.394 0-2.786-.572-3.787-1.536-1-1.037-1.571-2.394-1.571-3.821 0-1.394.571-2.787 1.571-3.787 2-1.998 5.571-1.998 7.572 0 .999 1 1.572 2.394 1.572 3.787s-.573 2.784-1.572 3.784c-1.001 1.001-2.394 1.573-3.785 1.573z"/><path fill="none" d="M54.16 117.759"/><path fill="#fff" d="M54.162 123.137c-1.394 0-2.787-.57-3.786-1.57-1.001-1.004-1.572-2.397-1.572-3.825 0-1.391.571-2.784 1.572-3.784 1.963-1.964 5.571-1.964 7.57 0 1 1.037 1.573 2.394 1.573 3.784 0 1.428-.573 2.787-1.573 3.788-1 1.036-2.392 1.607-3.784 1.607z"/><path fill="none" d="M70.378 117.759"/><path fill="#fff" d="M70.376 123.137c-1.394 0-2.786-.57-3.787-1.57-1-1.004-1.571-2.397-1.571-3.825 0-1.391.571-2.784 1.571-3.784 1.964-1.964 5.571-1.964 7.572 0 .999 1.037 1.572 2.394 1.572 3.784 0 1.428-.573 2.787-1.572 3.788-1.001 1.036-2.394 1.607-3.785 1.607z"/><path fill="none" d="M54.16 135.587"/><path fill="#fff" d="M54.162 140.956c-1.394 0-2.787-.57-3.786-1.57-1.001-1-1.572-2.391-1.572-3.786 0-1.426.571-2.781 1.572-3.785 2-1.998 5.571-1.998 7.57-.035 1 1.039 1.573 2.396 1.573 3.82 0 1.396-.573 2.786-1.573 3.786s-2.392 1.57-3.784 1.57z"/><path fill="none" d="M70.378 135.587"/><path fill="#fff" d="M70.376 140.956c-1.394 0-2.786-.57-3.787-1.57-1-1-1.571-2.391-1.571-3.786 0-1.426.571-2.781 1.571-3.785 2-2.037 5.571-1.998 7.572-.035.999 1.039 1.572 2.396 1.572 3.82 0 1.396-.573 2.786-1.572 3.786-1.001 1-2.394 1.57-3.785 1.57z"/><path fill="none" d="M54.16 153.412"/><path fill="#fff" d="M54.162 158.775c-1.394 0-2.787-.569-3.786-1.567-1.001-1-1.572-2.394-1.572-3.787 0-1.428.571-2.787 1.572-3.784 2-2.001 5.571-2.001 7.57 0 1 .997 1.573 2.356 1.573 3.784 0 1.394-.573 2.787-1.573 3.787-1 .998-2.392 1.567-3.784 1.567z"/></g></svg>