<svg xmlns="http://www.w3.org/2000/svg" width="250" height="250" viewBox="0 0 250 250"><path fill="#D12028" d="M250 125c0 69.039-55.964 125-125 125s-125-55.961-125-125c0-69.036 55.964-125 125-125s125 55.964 125 125z"/><path fill="#fff" d="M84.2 200.014c-2.958 0-5.357-2.398-5.357-5.355v-78.024c0-2.957 2.399-5.357 5.357-5.357 2.961 0 5.357 2.4 5.357 5.357v78.024c.001 2.955-2.396 5.355-5.357 5.355zM100.984 90.255c0 13.354-7.514 24.177-16.784 24.177-9.263 0-16.783-10.823-16.783-24.177 0-13.351 7.52-24.177 16.783-24.177 9.271.001 16.784 10.826 16.784 24.177zM84.2 119.789c-12.413 0-22.14-12.974-22.14-29.534s9.727-29.534 22.14-29.534c12.417 0 22.141 12.975 22.141 29.534s-9.724 29.534-22.141 29.534zm0-48.353c-6.082 0-11.426 8.792-11.426 18.82s5.344 18.82 11.426 18.82c6.09 0 11.427-8.792 11.427-18.82s-5.337-18.82-11.427-18.82zM165.479 200.014c-2.961 0-5.355-2.398-5.355-5.355v-78.024c0-2.957 2.396-5.357 5.355-5.357s5.357 2.4 5.357 5.357v78.024c0 2.955-2.398 5.355-5.357 5.355zM182.562 87.737v9.947c0 9.431-7.652 17.076-17.084 17.076-9.432 0-17.076-7.645-17.076-17.076v-9.947h34.16zM165.479 120.117c-12.367 0-22.434-10.062-22.434-22.433v-9.947c0-2.958 2.396-5.357 5.357-5.357h34.158c2.959 0 5.357 2.4 5.357 5.357v9.947c.002 12.371-10.063 22.433-22.438 22.433zm-11.719-27.023v4.59c0 6.463 5.258 11.719 11.719 11.719 6.467 0 11.727-5.256 11.727-11.719v-4.59h-23.446zM148.402 93.094c-2.961 0-5.357-2.399-5.357-5.357v-21.658c0-2.958 2.396-5.357 5.357-5.357 2.957 0 5.356 2.399 5.356 5.357v21.659c.002 2.957-2.399 5.356-5.356 5.356zM182.562 93.094c-2.961 0-5.357-2.399-5.357-5.357v-21.658c0-2.958 2.396-5.357 5.357-5.357 2.957 0 5.356 2.399 5.356 5.357v21.659c.001 2.957-2.398 5.356-5.356 5.356zM165.479 93.094c-2.957 0-5.355-2.399-5.355-5.357v-21.658c0-2.958 2.398-5.357 5.355-5.357 2.963 0 5.357 2.399 5.357 5.357v21.659c0 2.957-2.397 5.356-5.357 5.356z"/></svg>