<svg xmlns="http://www.w3.org/2000/svg" width="250" height="250" viewBox="0 0 250 250"><path fill="#D12028" d="M250 125c0 69.04-55.964 125-125.001 125-69.036 0-124.999-55.96-124.999-125 0-69.036 55.963-125 124.999-125 69.037 0 125.001 55.964 125.001 125zM187.123 79.123c0-8.001-6.493-14.492-14.494-14.492s-14.488 6.491-14.488 14.492c0 8.004 14.488 28.408 14.488 28.408s14.494-20.405 14.494-28.408z"/><path fill="#fff" d="M172.629 112.887c-1.73 0-3.361-.84-4.367-2.256-3.627-5.113-15.479-22.497-15.479-31.508 0-10.945 8.908-19.849 19.846-19.849 10.951 0 19.852 8.904 19.852 19.849 0 9.012-11.851 26.395-15.483 31.512-1.007 1.412-2.633 2.252-4.369 2.252zm0-42.899c-5.029 0-9.131 4.098-9.131 9.135 0 2.922 4.206 11.018 9.131 18.789 4.932-7.775 9.139-15.873 9.139-18.789 0-5.037-4.096-9.135-9.139-9.135z"/><path fill="#D12028" d="M104.638 54.932c0-9.096-7.38-16.469-16.472-16.469-9.093 0-16.466 7.373-16.466 16.469 0 9.1 16.466 32.289 16.466 32.289s16.472-23.19 16.472-32.289z"/><path fill="#fff" d="M88.166 92.578c-1.733 0-3.366-.84-4.37-2.256-2.913-4.105-17.453-25.104-17.453-35.39 0-12.036 9.787-21.826 21.823-21.826s21.829 9.79 21.829 21.826c0 10.289-14.543 31.285-17.459 35.39-1.009 1.415-2.638 2.256-4.37 2.256zm0-48.758c-6.128 0-11.108 4.984-11.108 11.112 0 3.672 5.197 13.542 11.108 22.719 5.912-9.18 11.115-19.053 11.115-22.719 0-6.128-4.988-11.112-11.115-11.112z"/><path stroke="#fff" stroke-width="3" stroke-linecap="round" stroke-linejoin="round" stroke-miterlimit="10" d="M172.629 107.53" fill="none"/><path fill="#D12028" d="M78.083 128.613c0-9.486-7.694-17.181-17.177-17.181s-17.17 7.694-17.17 17.181c0 9.486 17.17 33.67 17.17 33.67s17.177-24.183 17.177-33.67z"/><path fill="#fff" d="M60.905 167.641c-1.733 0-3.365-.841-4.37-2.257-3.031-4.269-18.157-26.114-18.157-36.771 0-12.427 10.104-22.538 22.527-22.538 12.427 0 22.534 10.111 22.534 22.538 0 10.654-15.133 32.502-18.167 36.772-1.004 1.415-2.633 2.256-4.367 2.256zm0-50.851c-6.515 0-11.812 5.305-11.812 11.823 0 3.897 5.552 14.422 11.816 24.109 6.26-9.691 11.816-20.212 11.816-24.109 0-6.518-5.301-11.823-11.82-11.823zM192.725 189.488c-.285 0-.586-.024-.879-.073l-131.816-21.849c-2.299-.379-4.088-2.2-4.423-4.506-.342-2.307.851-4.562 2.94-5.588l111.723-54.752c2.658-1.305 5.867-.206 7.172 2.452 1.306 2.658.201 5.866-2.455 7.167l-96.701 47.396 115.312 19.111c2.916.481 4.891 3.24 4.407 6.159-.433 2.624-2.706 4.483-5.28 4.483z"/><path stroke="#fff" stroke-width="3" stroke-linecap="round" stroke-linejoin="round" stroke-miterlimit="10" d="M192.718 184.131" fill="none"/><path fill="#D12028" d="M210.909 148.477c0-10.045-8.146-18.188-18.191-18.188-10.036 0-18.178 8.145-18.178 18.188 0 10.047 18.178 35.654 18.178 35.654s18.191-25.608 18.191-35.654z"/><path fill="#fff" d="M192.718 189.488c-1.729 0-3.362-.84-4.366-2.256-3.201-4.508-19.168-27.568-19.168-38.758 0-12.983 10.562-23.544 23.534-23.544 12.988 0 23.55 10.561 23.55 23.544 0 11.191-15.975 34.25-19.184 38.76-1.004 1.414-2.629 2.254-4.366 2.254zm0-53.843c-7.065 0-12.819 5.756-12.819 12.832 0 4.644 6.541 16.44 12.819 26.108 6.285-9.672 12.835-21.474 12.835-26.108 0-7.079-5.755-12.832-12.835-12.832zM172.637 112.887c-.412 0-.838-.049-1.257-.15l-84.467-20.31c-2.877-.69-4.649-3.582-3.955-6.459.691-2.877 3.589-4.646 6.459-3.955l84.466 20.309c2.874.691 4.646 3.582 3.955 6.459-.592 2.456-2.781 4.106-5.201 4.106z"/></svg>