<svg xmlns="http://www.w3.org/2000/svg" width="250" height="250" viewBox="0 0 250 250"><path fill="#D12028" d="M250 125c0 69.039-55.963 125-125.003 125-69.035 0-124.997-55.961-124.997-125 0-69.036 55.962-125 124.997-125 69.04 0 125.003 55.964 125.003 125z"/><path fill="#fff" d="M125 212.896c-2.961 0-5.357-2.398-5.357-5.356v-112.848c0-2.958 2.396-5.357 5.357-5.357s5.357 2.399 5.357 5.357v112.848c0 2.958-2.396 5.356-5.357 5.356zM127.312 100.049c-1.658 0-2.617-.066-2.617-.066-2.672-.188-4.81-2.319-4.987-4.991-.07-1.057-1.549-26.092 13.525-41.169 12.27-12.27 31.054-13.595 38.56-13.595 1.651 0 2.608.066 2.608.066 2.672.188 4.812 2.319 4.986 4.991.073 1.06 1.549 26.099-13.525 41.169-12.26 12.27-31.046 13.595-38.55 13.595zm41.334-49.013c-6.783.38-19.693 2.218-27.838 10.362-8.104 8.109-9.975 20.835-10.357 27.842 6.779-.376 19.697-2.214 27.838-10.362 8.106-8.102 9.975-20.832 10.357-27.842zM127.309 183.088c-1.656 0-2.612-.066-2.612-.066-2.668-.188-4.81-2.318-4.987-4.989-.07-1.062-1.549-26.097 13.524-41.171 12.267-12.265 31.048-13.59 38.553-13.59 1.66 0 2.615.066 2.615.066 2.673.188 4.812 2.319 4.988 4.991.072 1.061 1.549 26.092-13.521 41.169-12.269 12.266-31.055 13.59-38.56 13.59zm41.337-49.01c-6.778.377-19.693 2.215-27.838 10.359-8.104 8.104-9.975 20.832-10.357 27.842 6.787-.381 19.697-2.219 27.838-10.358 8.106-8.109 9.975-20.836 10.357-27.843zM122.688 143.221c-7.505 0-26.29-1.326-38.552-13.596-15.074-15.071-13.599-40.109-13.526-41.169.174-2.671 2.316-4.803 4.987-4.991 0 0 .956-.066 2.602-.066 7.505 0 26.296 1.325 38.566 13.595 15.073 15.074 13.594 40.109 13.525 41.169-.179 2.671-2.315 4.802-4.988 4.989.001 0-.958.069-2.614.069zm-41.335-49.014c.383 7.007 2.253 19.737 10.358 27.842 8.144 8.146 21.059 9.986 27.838 10.362-.384-7.003-2.253-19.733-10.358-27.842-8.144-8.14-21.052-9.982-27.838-10.362zM151.279 212.896h-52.558c-2.958 0-5.357-2.398-5.357-5.356 0-2.957 2.399-5.356 5.357-5.356h52.558c2.957 0 5.357 2.399 5.357 5.356.001 2.958-2.4 5.356-5.357 5.356z"/></svg>