<svg xmlns="http://www.w3.org/2000/svg" width="250" height="250" viewBox="0 0 250 250"><g><path fill="#D12028" d="M245 125c0 69.04-53.725 125-120.001 125-66.273 0-119.999-55.96-119.999-125 0-69.037 53.726-125 119.999-125 66.276 0 120.001 55.963 120.001 125z"/><path fill="#231F20" stroke="#fff" stroke-width="3" stroke-linecap="round" stroke-linejoin="round" stroke-miterlimit="10" d="M57.228 56.273"/><path fill="#D12028" d="M94.874 69.768l-22.902 23.855 80.044 83.378 22.9-23.855z"/><path fill="#fff" d="M152.016 182.357c-1.314 0-2.631-.521-3.635-1.566l-80.046-83.381c-.963-1.003-1.506-2.368-1.506-3.787s.543-2.781 1.506-3.787l22.901-23.856c1.93-2.009 5.344-2.009 7.273 0l80.044 83.384c.963 1 1.506 2.364 1.506 3.784s-.543 2.785-1.506 3.787l-22.9 23.854c-1.005 1.048-2.32 1.568-3.637 1.568zm-72.772-88.734l72.771 75.803 15.627-16.277-72.768-75.807-15.63 16.281zM163.467 170.43c-1.316 0-2.633-.521-3.637-1.57l-80.043-83.379c-2.01-2.092-2.01-5.48 0-7.572 2.009-2.095 5.264-2.095 7.271 0l80.042 83.375c2.01 2.095 2.01 5.483 0 7.575-1.002 1.049-2.319 1.571-3.633 1.571z"/><path fill="#D12028" d="M94.874 69.768l-40.453-18.286 17.551 42.141z"/><path fill="#fff" d="M71.972 98.98c-.32 0-.642-.031-.96-.094-1.673-.33-3.079-1.505-3.757-3.132l-17.552-42.137c-.84-2.018-.412-4.366 1.082-5.919 1.491-1.557 3.74-2.016 5.684-1.129l40.453 18.284c1.562.704 2.687 2.169 3.005 3.913.317 1.738-.213 3.534-1.417 4.788l-22.902 23.856c-.973 1.015-2.284 1.57-3.636 1.57zm-7.649-37.181l9.358 22.466 12.211-12.72-21.569-9.746zM72.507 59.659l-18.086-8.177 7.848 18.843zM62.269 75.681c-.319 0-.642-.031-.959-.092-1.674-.333-3.079-1.504-3.758-3.135l-7.849-18.837c-.84-2.018-.412-4.366 1.082-5.919 1.491-1.557 3.74-2.016 5.684-1.129l18.086 8.176c1.562.704 2.688 2.169 3.005 3.916.317 1.735-.213 3.534-1.417 4.785l-10.237 10.667c-.973 1.015-2.286 1.568-3.637 1.568z"/><path fill="#D12028" d="M168.197 193.861l22.901-23.856-16.182-16.859-22.9 23.855z"/><path fill="#fff" d="M168.197 199.219c-1.364 0-2.672-.564-3.637-1.57l-16.183-16.855c-2.007-2.094-2.007-5.484.002-7.577l22.897-23.851c2.011-2.096 5.265-2.096 7.273 0l16.182 16.854c2.01 2.094 2.01 5.482 0 7.577l-22.9 23.854c-.963 1.003-2.269 1.568-3.634 1.568zm-8.908-22.218l8.908 9.285 15.629-16.281-8.91-9.278-15.627 16.274z"/><path fill="#D12028" d="M142.044 70.656c-9.356 9.746-9.358 25.549 0 35.295 9.356 9.75 24.526 9.75 33.883 0 9.356-9.746 20.272-56.412 20.272-56.412s-44.799 11.368-54.155 21.117z"/><path fill="#fff" d="M158.986 118.619c-7.774 0-15.084-3.152-20.578-8.88-11.348-11.818-11.348-31.049 0-42.87 10.083-10.505 51.845-21.334 56.572-22.534 1.744-.453 3.586.089 4.854 1.414 1.271 1.322 1.785 3.24 1.358 5.058-1.152 4.925-11.549 48.428-21.633 58.933-5.491 5.727-12.8 8.879-20.573 8.879zm30.051-61.619c-16.665 4.714-38.211 12.086-43.355 17.443-7.336 7.644-7.336 20.08 0 27.721 3.555 3.705 8.28 5.742 13.308 5.742 5.022 0 9.75-2.037 13.306-5.742 5.142-5.36 12.214-27.806 16.741-45.164z"/><path fill="#D12028" d="M157.363 113.843l-22.9-23.854-80.042 83.381 22.901 23.859z"/><path fill="#fff" d="M77.322 202.587c-1.364 0-2.672-.563-3.636-1.569l-22.901-23.858c-2.008-2.094-2.008-5.483 0-7.575l80.042-83.385c1.929-2.006 5.344-2.006 7.272 0l22.9 23.859c2.008 2.092 2.008 5.479 0 7.574l-80.043 83.385c-.961 1.003-2.269 1.569-3.634 1.569zm-15.63-29.217l15.63 16.284 72.772-75.812-15.631-16.278-72.771 75.806z"/></g></svg>