<svg xmlns="http://www.w3.org/2000/svg" width="250" height="250" viewBox="0 0 250 250"><path fill="#D12028" d="M250 124.999c0 69.044-55.963 125.001-125.003 125.001-69.035 0-124.997-55.957-124.997-125.001 0-69.036 55.962-124.999 124.997-124.999 69.04 0 125.003 55.963 125.003 124.999zM195.613 121.515c0-24.902-20.18-45.085-45.08-45.085-24.902 0-45.082 20.183-45.082 45.085h90.162z"/><path fill="#fff" d="M195.613 126.872h-90.162c-2.961 0-5.357-2.4-5.357-5.357 0-27.814 22.628-50.442 50.438-50.442 27.81 0 50.438 22.628 50.438 50.442.001 2.957-2.4 5.357-5.357 5.357zm-84.448-10.714h78.729c-2.623-19.381-19.271-34.372-39.36-34.372s-36.743 14.99-39.369 34.372zM105.452 177.756c-2.961 0-5.357-2.398-5.357-5.357v-50.883c0-2.958 2.396-5.357 5.357-5.357 2.958 0 5.357 2.399 5.357 5.357v50.883c0 2.956-2.4 5.357-5.357 5.357zM195.613 177.756c-2.961 0-5.356-2.398-5.356-5.357v-50.883c0-2.958 2.396-5.357 5.356-5.357 2.957 0 5.357 2.399 5.357 5.357v50.883c.001 2.956-2.4 5.357-5.357 5.357zM208.309 126.872h-115.559c-2.958 0-5.357-2.4-5.357-5.357s2.399-5.357 5.357-5.357h115.559c2.961 0 5.357 2.399 5.357 5.357s-2.396 5.357-5.357 5.357zM208.309 177.756h-115.559c-2.958 0-5.357-2.398-5.357-5.357 0-2.957 2.399-5.356 5.357-5.356h115.559c2.961 0 5.357 2.399 5.357 5.356 0 2.958-2.396 5.357-5.357 5.357zM168.055 177.839c-2.961 0-5.356-2.399-5.356-5.356v-50.807c0-2.958 2.396-5.357 5.356-5.357 2.959 0 5.357 2.4 5.357 5.357v50.807c0 2.956-2.398 5.356-5.357 5.356zM133.792 177.839c-2.961 0-5.356-2.399-5.356-5.356v-50.807c0-2.958 2.396-5.357 5.356-5.357 2.958 0 5.356 2.4 5.356 5.357v50.807c0 2.956-2.398 5.356-5.356 5.356zM150.533 81.884c-2.958 0-5.357-2.399-5.357-5.357v-8.685c0-2.958 2.399-5.357 5.357-5.357 2.961 0 5.355 2.399 5.355 5.357v8.685c.003 2.957-2.394 5.357-5.355 5.357zM38.092 162.828c-1.374 0-2.741-.523-3.788-1.569-2.092-2.093-2.092-5.481 0-7.575l53.061-53.062c2.092-2.093 5.482-2.093 7.575 0 2.093 2.092 2.093 5.482 0 7.575l-53.061 53.063c-1.046 1.045-2.42 1.568-3.787 1.568z"/><path fill="#D12028" d="M114.353 104.408c0-12.814-10.386-23.2-23.2-23.2-12.813 0-23.207 10.386-23.207 23.2 0 12.813 10.393 23.207 23.207 23.207 12.813-.001 23.2-10.394 23.2-23.207z"/><path fill="#fff" d="M91.152 132.975c-15.75 0-28.563-12.815-28.563-28.566 0-15.747 12.813-28.558 28.563-28.558 15.747 0 28.557 12.811 28.557 28.558 0 15.749-12.81 28.566-28.557 28.566zm0-46.411c-9.842 0-17.85 8.004-17.85 17.843 0 9.842 8.008 17.85 17.85 17.85 9.839 0 17.843-8.008 17.843-17.85 0-9.838-8.004-17.843-17.843-17.843z"/></svg>