<svg xmlns="http://www.w3.org/2000/svg" width="250" height="250" viewBox="0 0 250 250"><g><path fill="#D12028" d="M250 125c0 69.039-55.962 125-125.003 125-69.035 0-124.997-55.961-124.997-125 0-69.036 55.962-125 124.997-125 69.041 0 125.003 55.964 125.003 125z"/><g fill="#fff"><path d="M207.688 125c0-8.189-6.646-14.83-14.832-14.83-8.195 0-14.834 6.641-14.834 14.83s6.639 14.83 14.834 14.83c8.185 0 14.832-6.641 14.832-14.83zM192.855 145.188c-11.133 0-20.19-9.055-20.19-20.188s9.058-20.187 20.19-20.187c11.131 0 20.188 9.054 20.188 20.187s-9.055 20.188-20.188 20.188zm0-29.661c-5.227 0-9.478 4.248-9.478 9.473 0 5.225 4.251 9.473 9.478 9.473 5.224 0 9.476-4.248 9.476-9.473 0-5.225-4.251-9.473-9.476-9.473zM140.82 125c0-8.189-6.646-14.83-14.834-14.83s-14.833 6.641-14.833 14.83 6.644 14.83 14.833 14.83 14.834-6.641 14.834-14.83zM125.986 145.188c-11.131 0-20.188-9.055-20.188-20.188s9.057-20.187 20.188-20.187c11.134 0 20.189 9.054 20.189 20.187s-9.055 20.188-20.189 20.188zm0-29.661c-5.223 0-9.475 4.248-9.475 9.473 0 5.225 4.251 9.473 9.475 9.473 5.226 0 9.477-4.248 9.477-9.473 0-5.225-4.252-9.473-9.477-9.473zM73.952 125c0-8.189-6.637-14.83-14.833-14.83-8.186 0-14.833 6.641-14.833 14.83s6.647 14.83 14.833 14.83c8.195 0 14.833-6.641 14.833-14.83zM59.119 145.188c-11.132 0-20.19-9.055-20.19-20.188s9.058-20.187 20.19-20.187c11.133 0 20.19 9.054 20.19 20.187s-9.058 20.188-20.19 20.188zm0-29.661c-5.224 0-9.476 4.248-9.476 9.473 0 5.225 4.251 9.473 9.476 9.473 5.225 0 9.476-4.248 9.476-9.473 0-5.225-4.252-9.473-9.476-9.473z"/></g></g></svg>