<svg xmlns="http://www.w3.org/2000/svg" width="250" height="250" viewBox="0 0 250 250"><g><g stroke="#fff" stroke-width="3" stroke-linecap="round" stroke-linejoin="round" stroke-miterlimit="10" fill="none"><path d="M-1840.593 532.281c-9.726 0-17.61 7.884-17.61 17.606 0 9.729 7.885 17.611 17.61 17.611M-1840.593 532.281c-9.726 0-17.61 7.884-17.61 17.606 0 9.729 7.885 17.611 17.61 17.611M-1858.203 549.891h17.61"/><path d="M-1833.063 567.502c9.726 0 17.61-7.885 17.61-17.611s-7.885-17.606-17.61-17.606v35.217z"/></g><path fill="#D12028" d="M250 125c0 69.04-55.963 125-125.001 125-69.036 0-124.999-55.96-124.999-125 0-69.037 55.963-125 124.999-125 69.038 0 125.001 55.963 125.001 125z"/><path fill="#fff" d="M71.813 188.788c-2.959 0-5.357-2.399-5.357-5.354v-39.67c0-2.957 2.398-5.355 5.357-5.355h47.83v-70.058c0-2.955 2.398-5.354 5.356-5.354 2.96 0 5.358 2.399 5.358 5.354v75.413c0 2.955-2.398 5.357-5.358 5.357h-47.83v34.312c0 2.956-2.397 5.355-5.356 5.355zM140.627 188.671c-22.033 0-39.961-17.925-39.961-39.966 0-2.955 2.398-5.354 5.358-5.354s5.357 2.396 5.357 5.354c0 16.13 13.119 29.254 29.246 29.254 16.128 0 29.249-13.124 29.249-29.254 0-13.02-8.762-24.586-21.306-28.125-2.848-.801-4.504-3.765-3.702-6.609.804-2.85 3.774-4.517 6.61-3.701 17.141 4.836 29.108 20.641 29.108 38.436.004 22.04-17.925 39.965-39.959 39.965zM136.408 68.351c0 6.301-5.109 11.405-11.409 11.405s-11.406-5.104-11.406-11.405c0-6.301 5.106-11.413 11.407-11.413 6.299 0 11.408 5.112 11.408 11.413zM125 85.113c-9.244 0-16.763-7.521-16.763-16.763 0-9.245 7.519-16.769 16.763-16.769s16.766 7.523 16.766 16.769c0 9.243-7.523 16.763-16.766 16.763zm0-22.818c-3.336 0-6.049 2.719-6.049 6.056 0 3.335 2.713 6.048 6.049 6.048s6.051-2.713 6.051-6.048c0-3.337-2.716-6.056-6.051-6.056zM125 120.782h-50.439c-2.959 0-5.357-2.399-5.357-5.357s2.397-5.358 5.357-5.358h50.439c2.96 0 5.357 2.4 5.357 5.358s-2.398 5.357-5.357 5.357z"/></g></svg>