<svg xmlns="http://www.w3.org/2000/svg" width="250" height="250" viewBox="0 0 250 250"><path fill="#D12028" d="M250 125c0 69.039-55.963 125-125.002 125-69.035 0-124.998-55.961-124.998-125 0-69.036 55.963-125 124.998-125 69.039 0 125.002 55.964 125.002 125z"/><path fill="#fff" d="M45.975 80.999h156.287v103.676h-156.287zM202.262 190.032h-156.287c-2.961 0-5.357-2.399-5.357-5.357v-103.676c0-2.958 2.396-5.357 5.357-5.357h156.287c2.957 0 5.356 2.4 5.356 5.357v103.676c0 2.958-2.399 5.357-5.356 5.357zm-150.93-10.716h145.572v-92.96h-145.572v92.96z"/><path fill="#D12028" d="M57.902 72.227h132.432v103.675h-132.432z"/><path fill="#fff" d="M190.334 181.261h-132.432c-2.961 0-5.357-2.399-5.357-5.356v-103.678c0-2.958 2.396-5.357 5.357-5.357h132.432c2.957 0 5.355 2.399 5.355 5.357v103.675c0 2.959-2.398 5.359-5.355 5.359zm-127.075-10.715h121.718v-92.962h-121.718v92.962zM124.119 198.611c-2.961 0-5.357-2.399-5.357-5.356v-121.028c0-2.958 2.396-5.357 5.357-5.357 2.958 0 5.355 2.399 5.355 5.357v121.028c.001 2.957-2.398 5.356-5.355 5.356zM103.318 99.31h-23.925c-2.961 0-5.357-2.4-5.357-5.357s2.396-5.357 5.357-5.357h23.925c2.961 0 5.357 2.399 5.357 5.357s-2.396 5.357-5.357 5.357zM103.318 119.385h-23.925c-2.961 0-5.357-2.399-5.357-5.357s2.396-5.357 5.357-5.357h23.925c2.961 0 5.357 2.399 5.357 5.357 0 2.957-2.396 5.357-5.357 5.357zM103.322 139.457h-23.929c-2.958 0-5.357-2.4-5.357-5.357s2.399-5.356 5.357-5.356h23.929c2.961 0 5.357 2.399 5.357 5.356s-2.396 5.357-5.357 5.357zM103.318 159.532h-23.925c-2.961 0-5.357-2.399-5.357-5.357s2.396-5.356 5.357-5.356h23.925c2.961 0 5.357 2.398 5.357 5.356s-2.396 5.357-5.357 5.357zM168.843 99.31h-23.933c-2.957 0-5.355-2.4-5.355-5.357s2.398-5.357 5.355-5.357h23.933c2.966 0 5.356 2.399 5.356 5.357s-2.39 5.357-5.356 5.357zM168.843 119.385h-23.933c-2.957 0-5.355-2.399-5.355-5.357s2.398-5.357 5.355-5.357h23.933c2.957 0 5.356 2.399 5.356 5.357 0 2.957-2.399 5.357-5.356 5.357zM168.843 139.457h-23.933c-2.957 0-5.355-2.4-5.355-5.357s2.398-5.356 5.355-5.356h23.933c2.957 0 5.356 2.399 5.356 5.356s-2.399 5.357-5.356 5.357zM168.843 159.532h-23.933c-2.957 0-5.355-2.399-5.355-5.357s2.398-5.356 5.355-5.356h23.933c2.966 0 5.356 2.398 5.356 5.356s-2.39 5.357-5.356 5.357z"/></svg>